# File created by Blade
# Date/Time:  Wed Jan 21 14:43:55 2015
# Frame Rate: 120.000 fps
#------------------------------------------------------
:FULLY-SPECIFIED
:DEGREES
1422
root 14.811789 35.296943 -20.876491 -170.082224 -3.919501 174.538620
Spine -20.693694 -5.014593 25.992163
Head 22.461265 -5.151980 29.562325
LeftShoulder -15.413059 -65.788347 69.874147
LeftArm 62.672002 -36.674976 -22.890974
LeftForeArm -58.971459 -0.000000 89.590836
LeftHand 3.759934 -0.000000 -8.745919
LeftHandThumb1 -26.253704 0.000000 33.147579
RightShoulder -15.915195 19.940077 -32.989965
RightArm 82.006111 63.679780 40.168461
RightForeArm 29.115957 0.000000 76.953126
RightHand 11.433412 0.000000 26.470545
RightHandThumb1 -24.326973 -0.000000 -32.862282
LeftUpLeg -1.148461 6.062576 -10.947064
LeftLeg -6.743100 -0.000000 0.000000
LeftFoot -19.672491 26.790499 -12.364906
LeftToeBase 24.344653 -0.000000 -0.000000
RightUpLeg -0.693852 -19.955912 -14.176431
RightLeg -4.537427 -0.000000 0.000000
RightFoot -17.446985 -16.742550 21.241382
RightToeBase 26.455339 -0.000000 -0.000000
1423
root 14.753550 35.288715 -20.885128 -170.125363 -3.929280 174.459714
Spine -20.623303 -5.051087 26.228706
Head 22.477368 -4.907555 29.719727
LeftShoulder -15.523476 -65.732474 69.908729
LeftArm 62.683598 -36.679185 -22.870991
LeftForeArm -59.037594 -0.000000 89.588267
LeftHand 3.877398 -0.000000 -8.899924
LeftHandThumb1 -26.253704 0.000000 33.147579
RightShoulder -15.986870 20.173352 -33.092521
RightArm 81.744492 63.469247 39.941918
RightForeArm 28.942438 -0.000000 76.950344
RightHand 11.502724 -0.000000 26.487673
RightHandThumb1 -24.326973 -0.000000 -32.862282
LeftUpLeg -1.075667 6.064979 -11.104246
LeftLeg -6.735763 -0.000000 0.000000
LeftFoot -19.695060 26.734943 -12.335143
LeftToeBase 24.317876 -0.000000 -0.000000
RightUpLeg -0.625866 -20.117368 -14.367053
RightLeg -4.519572 -0.000000 0.000000
RightFoot -17.429580 -16.657839 21.175015
RightToeBase 26.682974 -0.000000 -0.000000
1424
root 14.699685 35.279759 -20.893489 -170.171531 -3.935482 174.390048
Spine -20.554006 -5.034410 26.425746
Head 22.449493 -4.749050 29.948915
LeftShoulder -15.626368 -65.775350 69.960992
LeftArm 62.735982 -36.611436 -22.894886
LeftForeArm -59.077489 -0.000000 89.547884
LeftHand 3.832898 -0.000000 -8.819674
LeftHandThumb1 -26.253704 0.000000 33.147579
RightShoulder -16.142017 19.902614 -33.071057
RightArm 82.318102 63.528036 40.532401
RightForeArm 28.852623 -0.000000 76.986487
RightHand 11.411398 -0.000000 26.470212
RightHandThumb1 -24.326973 -0.000000 -32.862282
LeftUpLeg -0.985906 6.012034 -11.242717
LeftLeg -6.759278 -0.000000 0.000000
LeftFoot -19.716214 26.742901 -12.307569
LeftToeBase 24.370484 -0.000000 -0.000000
RightUpLeg -0.560192 -20.236924 -14.543213
RightLeg -4.493533 -0.000000 0.000000
RightFoot -17.410136 -16.574945 21.180843
RightToeBase 26.691559 -0.000000 -0.000000
1425
root 14.645144 35.270560 -20.900889 -170.208389 -3.971687 174.315988
Spine -20.529123 -5.042788 26.598555
Head 22.437133 -4.833506 30.065310
LeftShoulder -15.528252 -65.732184 69.887315
LeftArm 62.763122 -36.639920 -22.868964
LeftForeArm -59.240459 -0.000000 89.522788
LeftHand 3.907498 0.000000 -8.954997
LeftHandThumb1 -26.253704 0.000000 33.147579
RightShoulder -16.233638 20.043236 -33.137142
RightArm 81.957458 63.334969 40.257971
RightForeArm 28.790513 -0.000000 77.028388
RightHand 11.480794 -0.000000 26.346427
RightHandThumb1 -24.326973 -0.000000 -32.862282
LeftUpLeg -0.906668 5.894581 -11.381313
LeftLeg -6.774333 -0.000000 0.000000
LeftFoot -19.735076 26.793556 -12.278991
LeftToeBase 24.298749 -0.000000 -0.000000
RightUpLeg -0.488511 -20.404475 -14.720241
RightLeg -4.479342 -0.000000 0.000000
RightFoot -17.365712 -16.464017 21.254195
RightToeBase 26.461960 -0.000000 -0.000000
1426
root 14.590722 35.262216 -20.907728 -170.238025 -4.006411 174.233549
Spine -20.523578 -5.088395 26.776692
Head 22.475856 -4.876095 30.197233
LeftShoulder -15.138862 -65.495550 69.491828
LeftArm 62.926798 -36.855882 -22.818160
LeftForeArm -59.244231 -0.000000 89.446802
LeftHand 3.917639 -0.000000 -8.957956
LeftHandThumb1 -26.253704 0.000000 33.147579
RightShoulder -16.221285 19.801550 -32.998144
RightArm 82.362440 63.461423 40.618235
RightForeArm 28.693078 -0.000000 77.052718
RightHand 11.416235 -0.000000 26.350068
RightHandThumb1 -24.326973 -0.000000 -32.862282
LeftUpLeg -0.857931 5.839552 -11.532936
LeftLeg -6.742577 -0.000000 0.000000
LeftFoot -19.769540 26.772565 -12.240411
LeftToeBase 24.261414 -0.000000 -0.000000
RightUpLeg -0.421694 -20.565539 -14.902594
RightLeg -4.469861 -0.000000 0.000000
RightFoot -17.364326 -16.398229 21.180216
RightToeBase 26.743099 -0.000000 -0.000000
1427
root 14.538971 35.253849 -20.916242 -170.283613 -4.050816 174.160061
Spine -20.518719 -5.148607 26.930146
Head 22.496678 -5.157097 30.259233
LeftShoulder -14.966203 -65.379083 69.362332
LeftArm 63.038423 -36.885549 -22.816286
LeftForeArm -59.396054 0.000000 89.352705
LeftHand 3.974509 -0.000000 -8.953022
LeftHandThumb1 -26.253704 0.000000 33.147579
RightShoulder -16.198092 19.932756 -32.962440
RightArm 81.903765 63.361092 40.225302
RightForeArm 28.730755 -0.000000 77.124591
RightHand 11.377268 -0.000000 26.270106
RightHandThumb1 -24.326973 -0.000000 -32.862282
LeftUpLeg -0.768687 5.746930 -11.666949
LeftLeg -6.759837 -0.000000 0.000000
LeftFoot -19.790149 26.805981 -12.227419
LeftToeBase 24.250346 -0.000000 -0.000000
RightUpLeg -0.329642 -20.741217 -15.079520
RightLeg -4.467886 -0.000000 0.000000
RightFoot -17.327242 -16.303249 21.173024
RightToeBase 26.761298 -0.000000 -0.000000
1428
root 14.482328 35.244323 -20.926394 -170.327869 -4.057391 174.075478
Spine -20.495539 -5.160789 27.088985
Head 22.514493 -5.195964 30.396072
LeftShoulder -14.705320 -65.212641 69.104095
LeftArm 63.200970 -36.995389 -22.842151
LeftForeArm -59.385183 -0.000000 89.276055
LeftHand 3.945054 -0.000000 -8.939096
LeftHandThumb1 -26.253704 0.000000 33.147579
RightShoulder -16.069749 19.402485 -32.659427
RightArm 82.409235 63.856499 40.511151
RightForeArm 28.838777 -0.000000 77.064088
RightHand 11.447208 -0.000000 26.139413
RightHandThumb1 -24.326973 -0.000000 -32.862282
LeftUpLeg -0.678003 5.728107 -11.827472
LeftLeg -6.778444 -0.000000 0.000000
LeftFoot -19.803572 26.785018 -12.195209
LeftToeBase 24.240417 -0.000000 -0.000000
RightUpLeg -0.237758 -20.829962 -15.280378
RightLeg -4.478816 -0.000000 0.000000
RightFoot -17.304341 -16.247782 21.216173
RightToeBase 26.707866 -0.000000 -0.000000
1429
root 14.431563 35.236309 -20.934059 -170.358175 -4.106791 174.014491
Spine -20.503354 -5.209773 27.280861
Head 22.540343 -5.265122 30.534170
LeftShoulder -14.739482 -65.285871 69.197442
LeftArm 63.121910 -36.864396 -22.737129
LeftForeArm -59.421354 -0.000000 89.264510
LeftHand 3.892589 -0.000000 -8.859440
LeftHandThumb1 -26.253704 0.000000 33.147579
RightShoulder -16.036040 19.415892 -32.582094
RightArm 82.217482 63.866271 40.290467
RightForeArm 28.810805 0.000000 77.060395
RightHand 11.471284 -0.000000 26.178892
RightHandThumb1 -24.326973 -0.000000 -32.862282
LeftUpLeg -0.618634 5.649542 -11.949621
LeftLeg -6.766987 -0.000000 0.000000
LeftFoot -19.828308 26.783224 -12.159944
LeftToeBase 24.244922 -0.000000 -0.000000
RightUpLeg -0.162666 -21.023536 -15.436536
RightLeg -4.475016 -0.000000 0.000000
RightFoot -17.260824 -16.127698 21.204973
RightToeBase 26.758792 -0.000000 -0.000000
1430
root 14.380678 35.226954 -20.942746 -170.399643 -4.141919 173.963705
Spine -20.489290 -5.225379 27.467806
Head 22.537078 -5.325608 30.690072
LeftShoulder -14.500308 -65.152854 68.976091
LeftArm 63.267620 -36.967968 -22.745588
LeftForeArm -59.441083 0.000000 89.160529
LeftHand 3.939459 -0.000000 -8.888453
LeftHandThumb1 -26.253704 0.000000 33.147579
RightShoulder -16.022450 19.211602 -32.437095
RightArm 82.493315 63.992350 40.499401
RightForeArm 28.777504 -0.000000 77.038223
RightHand 11.471537 -0.000000 26.199888
RightHandThumb1 -24.326973 -0.000000 -32.862282
LeftUpLeg -0.531733 5.563483 -12.063089
LeftLeg -6.791435 -0.000000 0.000000
LeftFoot -19.854909 26.823498 -12.107137
LeftToeBase 24.197997 -0.000000 -0.000000
RightUpLeg -0.075678 -21.132898 -15.589689
RightLeg -4.477468 -0.000000 0.000000
RightFoot -17.248311 -16.074681 21.237807
RightToeBase 26.799246 -0.000000 -0.000000
1431
root 14.323542 35.217653 -20.948839 -170.426971 -4.170371 173.861242
Spine -20.490045 -5.244873 27.613464
Head 22.545812 -5.358062 30.801566
LeftShoulder -14.260007 -65.012737 68.713613
LeftArm 63.453081 -37.058269 -22.740967
LeftForeArm -59.378831 -0.000000 89.020477
LeftHand 3.830554 -0.000000 -8.614790
LeftHandThumb1 -26.253704 0.000000 33.147579
RightShoulder -16.110637 19.573026 -32.631808
RightArm 81.862648 63.575663 40.149636
RightForeArm 28.664928 -0.000000 77.188271
RightHand 11.435067 -0.000000 26.134851
RightHandThumb1 -24.326973 -0.000000 -32.862282
LeftUpLeg -0.494355 5.586604 -12.247371
LeftLeg -6.746954 -0.000000 0.000000
LeftFoot -19.890906 26.740530 -12.099821
LeftToeBase 24.222112 -0.000000 -0.000000
RightUpLeg -0.006981 -21.182038 -15.807812
RightLeg -4.462326 -0.000000 0.000000
RightFoot -17.263314 -16.066337 21.268097
RightToeBase 26.836063 -0.000000 -0.000000
